# xmcd CD database file
#
# Track frame offsets:
#	150
#	24333
#	53886
#	73545
#	83370
#	118929
#	145620
#	176339
#	198617
#	216532
#	249558
#
# Disc length: 3634 seconds
#
# Revision: 0
# Processed by: cddbd v1.5.2PL0 Copyright (c) Steve Scherf et al.
# Submitted via: CDex 1.70beta2
#
DISCID=990e300b
DTITLE=Jonathan Greenstein - Thinking
DYEAR=2009
DGENRE=Jazz
TTITLE0=The Big 6
TTITLE1=Sublet
TTITLE2=BBQ
TTITLE3=Interlude
TTITLE4=Learning to Love with Silence
TTITLE5=Bencotish I
TTITLE6=New Thank You
TTITLE7=Views of Tel Aviv
TTITLE8=Bencotish II
TTITLE9=Chillin
TTITLE10=Thinking of Her Place
EXTD=YEAR: 2009
EXTT0=
EXTT1=
EXTT2=
EXTT3=
EXTT4=
EXTT5=
EXTT6=
EXTT7=
EXTT8=
EXTT9=
EXTT10=
PLAYORDER=
